<mxfile host="app.diagrams.net" modified="2024-03-04T14:26:08.650Z" agent="Mozilla/5.0 (Windows NT 10.0; Win64; x64) AppleWebKit/537.36 (KHTML, like Gecko) Chrome/122.0.0.0 Safari/537.36 Edg/122.0.0.0" version="24.0.1" etag="FjZGoKTd_c7y33Qu5ErI" type="github">
  <diagram name="Page-1" id="Df26V0l-8cRtfKz2FVNw">
    <mxGraphModel>
      <root>
        <mxCell id="0" />
        <mxCell id="1" parent="0" />
      </root>
    </mxGraphModel>
  </diagram>
</mxfile>
